<svg width="78.000000" height="78.000000" viewBox="0 0 78 78" fill="none" xmlns="http://www.w3.org/2000/svg" xmlns:xlink="http://www.w3.org/1999/xlink">
	<desc>
			Created with Pixso.
	</desc>
	<defs>
		<filter id="filter_136_619_dd" x="0.000000" y="0.000000" width="78.000000" height="78.000000" filterUnits="userSpaceOnUse" color-interpolation-filters="sRGB">
			<feFlood flood-opacity="0" result="BackgroundImageFix"/>
			<feGaussianBlur in="BackgroundImage" stdDeviation="8.33333"/>
			<feComposite in2="SourceAlpha" operator="in" result="effect_backgroundBlur_1"/>
			<feColorMatrix in="SourceAlpha" type="matrix" values="0 0 0 0 0 0 0 0 0 0 0 0 0 0 0 0 0 0 127 0" result="hardAlpha"/>
			<feMorphology radius="-1" in="" result="effect_backgroundBlur_1"/>
			<feOffset dx="0" dy="1"/>
			<feGaussianBlur stdDeviation="8"/>
			<feComposite in2="hardAlpha" operator="out" k2="-1" k3="1"/>
			<feColorMatrix type="matrix" values="0 0 0 0 0 0 0 0 0 0 0 0 0 0 0 0 0 0 0.1 0"/>
			<feBlend mode="normal" in2="effect_backgroundBlur_1" result="effect_dropShadow_2"/>
			<feBlend mode="normal" in="SourceGraphic" in2="effect_dropShadow_2" result="shape"/>
		</filter>
		<clipPath id="clip136_620">
			<rect id="tabler:brand-x-filled" width="20.000000" height="20.000000" transform="translate(29.000000 28.000000)" fill="white" fill-opacity="0"/>
		</clipPath>
		<clipPath id="clip136_619">
			<rect id="Frame 1276" rx="15.250000" width="30.500000" height="30.500000" transform="translate(23.750000 22.750000)" fill="white" fill-opacity="0"/>
		</clipPath>
	</defs>
	<g filter="url(#filter_136_619_dd)">
		<rect id="Frame 1276" rx="15.250000" width="30.500000" height="30.500000" transform="translate(23.750000 22.750000)" fill="#1B3150" fill-opacity="0"/>
		<g clip-path="url(#clip136_619)">
			<rect id="tabler:brand-x-filled" width="20.000000" height="20.000000" transform="translate(29.000000 28.000000)" fill="#FFFFFF" fill-opacity="0"/>
			<g clip-path="url(#clip136_620)">
				<path id="Vector" d="M35.88 30.5C36 30.5 36.11 30.52 36.22 30.56C36.32 30.61 36.41 30.68 36.49 30.76L36.56 30.84L40.12 35.69L45.07 30.74C45.22 30.59 45.42 30.5 45.64 30.5C45.85 30.49 46.05 30.56 46.21 30.7C46.37 30.84 46.47 31.04 46.49 31.25C46.51 31.46 46.45 31.67 46.32 31.84L46.25 31.92L41.12 37.05L46.33 44.17C46.42 44.29 46.47 44.43 46.49 44.57C46.51 44.72 46.48 44.86 46.42 45C46.37 45.13 46.27 45.25 46.15 45.33C46.04 45.42 45.9 45.47 45.75 45.49L45.66 45.5L42.11 45.5C41.99 45.5 41.88 45.47 41.77 45.43C41.67 45.38 41.58 45.31 41.5 45.23L41.43 45.15L37.87 40.3L32.92 45.25C32.77 45.4 32.57 45.49 32.36 45.49C32.14 45.5 31.94 45.43 31.78 45.29C31.62 45.15 31.52 44.95 31.5 44.74C31.48 44.53 31.54 44.32 31.67 44.15L31.74 44.07L36.87 38.94L31.66 31.82C31.57 31.7 31.52 31.56 31.5 31.42C31.49 31.27 31.51 31.13 31.57 30.99C31.62 30.86 31.72 30.74 31.84 30.66C31.95 30.57 32.09 30.52 32.24 30.5L32.33 30.5L35.88 30.5Z" fill="#FFFFFF" fill-opacity="1.000000" fill-rule="nonzero"/>
			</g>
		</g>
		<rect id="Frame 1276" rx="15.250000" width="30.500000" height="30.500000" transform="translate(23.750000 22.750000)" stroke="#FFFFFF" stroke-opacity="1.000000" stroke-width="1.500000"/>
	</g>
</svg>
