<svg width="78.000000" height="78.000000" viewBox="0 0 78 78" fill="none" xmlns="http://www.w3.org/2000/svg" xmlns:xlink="http://www.w3.org/1999/xlink">
	<desc>
			Created with Pixso.
	</desc>
	<defs>
		<filter id="filter_136_616_dd" x="0.000000" y="0.000000" width="78.000000" height="78.000000" filterUnits="userSpaceOnUse" color-interpolation-filters="sRGB">
			<feFlood flood-opacity="0" result="BackgroundImageFix"/>
			<feGaussianBlur in="BackgroundImage" stdDeviation="8.33333"/>
			<feComposite in2="SourceAlpha" operator="in" result="effect_backgroundBlur_1"/>
			<feColorMatrix in="SourceAlpha" type="matrix" values="0 0 0 0 0 0 0 0 0 0 0 0 0 0 0 0 0 0 127 0" result="hardAlpha"/>
			<feMorphology radius="-1" in="" result="effect_backgroundBlur_1"/>
			<feOffset dx="0" dy="1"/>
			<feGaussianBlur stdDeviation="8"/>
			<feComposite in2="hardAlpha" operator="out" k2="-1" k3="1"/>
			<feColorMatrix type="matrix" values="0 0 0 0 0 0 0 0 0 0 0 0 0 0 0 0 0 0 0.1 0"/>
			<feBlend mode="normal" in2="effect_backgroundBlur_1" result="effect_dropShadow_2"/>
			<feBlend mode="normal" in="SourceGraphic" in2="effect_dropShadow_2" result="shape"/>
		</filter>
		<clipPath id="clip136_617">
			<rect id="ri:facebook-fill" width="20.000000" height="20.000000" transform="translate(29.000000 28.000000)" fill="white" fill-opacity="0"/>
		</clipPath>
		<clipPath id="clip136_616">
			<rect id="Frame 1275" rx="15.250000" width="30.500000" height="30.500000" transform="translate(23.750000 22.750000)" fill="white" fill-opacity="0"/>
		</clipPath>
	</defs>
	<g filter="url(#filter_136_616_dd)">
		<rect id="Frame 1275" rx="15.250000" width="30.500000" height="30.500000" transform="translate(23.750000 22.750000)" fill="#1B3150" fill-opacity="0"/>
		<g clip-path="url(#clip136_616)">
			<rect id="ri:facebook-fill" width="20.000000" height="20.000000" transform="translate(29.000000 28.000000)" fill="#FFFFFF" fill-opacity="0"/>
			<g clip-path="url(#clip136_617)">
				<path id="Vector" d="M40.66 39.24L42.75 39.24L43.58 35.91L40.66 35.91L40.66 34.24C40.66 33.39 40.66 32.58 42.33 32.58L43.58 32.58L43.58 29.78C43.31 29.74 42.28 29.66 41.2 29.66C38.93 29.66 37.33 31.04 37.33 33.58L37.33 35.91L34.83 35.91L34.83 39.24L37.33 39.24L37.33 46.33L40.66 46.33L40.66 39.24Z" fill="#FFFFFF" fill-opacity="1.000000" fill-rule="nonzero"/>
			</g>
		</g>
		<rect id="Frame 1275" rx="15.250000" width="30.500000" height="30.500000" transform="translate(23.750000 22.750000)" stroke="#FFFFFF" stroke-opacity="1.000000" stroke-width="1.500000"/>
	</g>
</svg>
