<svg width="78.000000" height="78.000000" viewBox="0 0 78 78" fill="none" xmlns="http://www.w3.org/2000/svg" xmlns:xlink="http://www.w3.org/1999/xlink">
	<desc>
			Created with Pixso.
	</desc>
	<defs>
		<filter id="filter_136_624_dd" x="0.000000" y="0.000000" width="78.000000" height="78.000000" filterUnits="userSpaceOnUse" color-interpolation-filters="sRGB">
			<feFlood flood-opacity="0" result="BackgroundImageFix"/>
			<feGaussianBlur in="BackgroundImage" stdDeviation="8.33333"/>
			<feComposite in2="SourceAlpha" operator="in" result="effect_backgroundBlur_1"/>
			<feColorMatrix in="SourceAlpha" type="matrix" values="0 0 0 0 0 0 0 0 0 0 0 0 0 0 0 0 0 0 127 0" result="hardAlpha"/>
			<feMorphology radius="-1" in="" result="effect_backgroundBlur_1"/>
			<feOffset dx="0" dy="1"/>
			<feGaussianBlur stdDeviation="8"/>
			<feComposite in2="hardAlpha" operator="out" k2="-1" k3="1"/>
			<feColorMatrix type="matrix" values="0 0 0 0 0 0 0 0 0 0 0 0 0 0 0 0 0 0 0.1 0"/>
			<feBlend mode="normal" in2="effect_backgroundBlur_1" result="effect_dropShadow_2"/>
			<feBlend mode="normal" in="SourceGraphic" in2="effect_dropShadow_2" result="shape"/>
		</filter>
		<clipPath id="clip136_625">
			<rect id="ant-design:instagram-filled" width="20.000000" height="20.000000" transform="translate(29.000000 28.000000)" fill="white" fill-opacity="0"/>
		</clipPath>
		<clipPath id="clip136_624">
			<rect id="Frame 1277" rx="15.250000" width="30.500000" height="30.500000" transform="translate(23.750000 22.750000)" fill="white" fill-opacity="0"/>
		</clipPath>
	</defs>
	<g filter="url(#filter_136_624_dd)">
		<rect id="Frame 1277" rx="15.250000" width="30.500000" height="30.500000" transform="translate(23.750000 22.750000)" fill="#1B3150" fill-opacity="0"/>
		<g clip-path="url(#clip136_624)">
			<rect id="ant-design:instagram-filled" width="20.000000" height="20.000000" transform="translate(29.000000 28.000000)" fill="#FFFFFF" fill-opacity="0"/>
			<g clip-path="url(#clip136_625)">
				<path id="Vector" d="M39 35.39C37.56 35.39 36.39 36.56 36.39 38C36.39 39.43 37.56 40.6 39 40.6C40.43 40.6 41.6 39.43 41.6 38C41.6 36.56 40.43 35.39 39 35.39ZM46.8 38C46.8 36.92 46.81 35.85 46.75 34.77C46.69 33.52 46.41 32.41 45.49 31.5C44.58 30.58 43.47 30.3 42.22 30.24C41.14 30.18 40.07 30.19 39 30.19C37.92 30.19 36.85 30.18 35.77 30.24C34.52 30.3 33.41 30.58 32.5 31.5C31.58 32.41 31.3 33.52 31.24 34.77C31.18 35.85 31.19 36.92 31.19 38C31.19 39.07 31.18 40.14 31.24 41.22C31.3 42.47 31.59 43.58 32.5 44.49C33.42 45.41 34.52 45.69 35.77 45.75C36.85 45.81 37.92 45.8 39 45.8C40.08 45.8 41.14 45.81 42.22 45.75C43.47 45.69 44.58 45.41 45.49 44.49C46.41 43.58 46.69 42.47 46.75 41.22C46.82 40.14 46.8 39.07 46.8 38ZM39 42C36.78 42 34.99 40.21 34.99 38C34.99 35.78 36.78 33.99 39 33.99C41.21 33.99 43 35.78 43 38C43 40.21 41.21 42 39 42ZM43.16 34.76C42.65 34.76 42.23 34.34 42.23 33.83C42.23 33.31 42.65 32.89 43.16 32.89C43.68 32.89 44.1 33.31 44.1 33.83C44.1 33.95 44.08 34.07 44.03 34.18C43.98 34.3 43.91 34.4 43.83 34.49C43.74 34.57 43.64 34.64 43.52 34.69C43.41 34.74 43.29 34.76 43.16 34.76Z" fill="#FFFFFF" fill-opacity="1.000000" fill-rule="nonzero"/>
			</g>
		</g>
		<rect id="Frame 1277" rx="15.250000" width="30.500000" height="30.500000" transform="translate(23.750000 22.750000)" stroke="#FFFFFF" stroke-opacity="1.000000" stroke-width="1.500000"/>
	</g>
</svg>
