<svg width="166.000000" height="49.000000" viewBox="0 0 166 49" fill="none" xmlns="http://www.w3.org/2000/svg" xmlns:xlink="http://www.w3.org/1999/xlink">
	<desc>
			Created with Pixso.
	</desc>
	<defs>
		<clipPath id="clip16_26">
			<rect id="logo" width="166.000000" height="49.000000" fill="white" fill-opacity="0"/>
		</clipPath>
	</defs>
	<g clip-path="url(#clip16_26)">
		<path id="path" d="M0 14.12L0 14.25L27.95 27.38L56 14.2L27.95 1L0 14.12ZM10.07 14.19L27.95 5.79L45.82 14.19L27.95 22.58L10.07 14.19ZM27.95 32.48L0 19.54L0 24.33L27.95 37.29L56 24.28L56 19.5L27.95 32.48ZM27.95 42.18L0 29.25L0 34.03L27.95 47L56 33.99L56 29.2L27.95 42.18Z" fill="#FFFFFF" fill-opacity="1.000000" fill-rule="evenodd"/>
		<mask id="mask16_32" mask-type="alpha" maskUnits="userSpaceOnUse" x="72.013672" y="0.030273" width="93.959961" height="48.290039">
			<path id="a" d="M72.01 0.03L165.97 0.03L165.97 48.32L72.01 48.32L72.01 0.03Z" fill="#FFFFFF" fill-opacity="1.000000" fill-rule="nonzero"/>
		</mask>
		<g mask="url(#mask16_32)">
			<path id="path" d="M159.56 24.15C159.57 22 158.85 20.15 157.39 18.57C156.73 17.86 155.95 17.3 155.05 16.9C154.15 16.49 153.2 16.29 152.2 16.3C151.19 16.3 150.24 16.5 149.35 16.9C148.46 17.3 147.68 17.86 147.01 18.57C145.56 20.15 144.83 22 144.85 24.15C144.84 26.29 145.56 28.15 147.01 29.72C147.68 30.44 148.46 30.99 149.35 31.39C150.26 31.8 151.21 32 152.2 32C153.21 32 154.16 31.8 155.06 31.39C155.95 30.99 156.73 30.44 157.39 29.72C158.85 28.15 159.57 26.29 159.56 24.15ZM165.97 24.15C165.97 26.08 165.61 27.87 164.9 29.52C164.21 31.15 163.23 32.57 161.96 33.8C160.71 35.01 159.25 35.96 157.57 36.65C155.89 37.35 154.1 37.7 152.2 37.7C150.3 37.7 148.52 37.35 146.86 36.65C145.22 35.98 143.76 35.02 142.49 33.78C141.23 32.54 140.25 31.11 139.55 29.48C138.84 27.83 138.48 26.05 138.48 24.15C138.48 22.27 138.85 20.51 139.57 18.86C140.28 17.23 141.27 15.79 142.53 14.54C143.8 13.29 145.26 12.32 146.9 11.64C148.6 10.93 150.36 10.58 152.2 10.59C154.1 10.59 155.89 10.94 157.57 11.64C159.25 12.34 160.71 13.29 161.96 14.49C163.21 15.7 164.19 17.13 164.9 18.8C165.61 20.46 165.97 22.25 165.97 24.15ZM136.25 36.9C135.7 37.15 135.13 37.35 134.54 37.48C133.9 37.63 133.24 37.7 132.56 37.7C131.62 37.71 130.71 37.58 129.82 37.32C128.96 37.08 128.2 36.68 127.52 36.1C126.87 35.53 126.35 34.8 125.96 33.89C125.58 32.98 125.38 31.89 125.38 30.61L125.38 0.02L131.93 0.02L131.93 29.5C131.93 30.57 132.15 31.3 132.58 31.71C133.01 32.11 133.52 32.31 134.12 32.31C134.86 32.31 135.57 32.08 136.25 31.64L136.25 36.9ZM122.49 11.22L110.9 41.85C110.04 44.14 108.91 45.79 107.52 46.8C106.12 47.81 104.46 48.31 102.53 48.31C102.23 48.31 101.9 48.29 101.55 48.25C101.2 48.21 100.86 48.14 100.52 48.05L98.38 42.07C98.89 42.31 99.41 42.49 99.94 42.63C100.48 42.76 100.98 42.83 101.46 42.83C102.47 42.83 103.39 42.6 104.22 42.14C105.05 41.68 105.69 40.82 106.14 39.58L107.03 36.99L97.09 11.22L104.09 11.22L110.01 27.8L115.58 11.22L122.49 11.22ZM95.53 7.34L78.78 7.34L78.78 15.63L95.31 15.63L95.31 21.25L78.78 21.25L78.78 37.03L72.01 37.03L72.01 1.41L95.53 1.41L95.53 7.34Z" fill="#FFFFFF" fill-opacity="1.000000" fill-rule="evenodd"/>
		</g>
	</g>
</svg>
